<mxfile host="app.diagrams.net" modified="2021-07-20T12:07:55.394Z" agent="5.0 (Windows NT 10.0; Win64; x64) AppleWebKit/537.36 (KHTML, like Gecko) Chrome/90.0.4430.72 Safari/537.36" etag="vcWwdVLbAkeonCe1GTpP" version="14.8.5" type="github">
  <diagram id="C5RBs43oDa-KdzZeNtuy" name="Page-1">
    <mxGraphModel dx="1718" dy="935" grid="1" gridSize="10" guides="1" tooltips="1" connect="1" arrows="1" fold="1" page="1" pageScale="1" pageWidth="2339" pageHeight="3300" math="0" shadow="0">
      <root>
        <mxCell id="WIyWlLk6GJQsqaUBKTNV-0" />
        <mxCell id="WIyWlLk6GJQsqaUBKTNV-1" parent="WIyWlLk6GJQsqaUBKTNV-0" />
        <mxCell id="bIeI5xdJGliXpmMRXG91-0" value="BaseDetector" style="swimlane;fontStyle=2;align=center;verticalAlign=top;childLayout=stackLayout;horizontal=1;startSize=26;horizontalStack=0;resizeParent=1;resizeLast=0;collapsible=1;marginBottom=0;rounded=0;shadow=0;strokeWidth=1;" parent="WIyWlLk6GJQsqaUBKTNV-1" vertex="1">
          <mxGeometry x="1250" y="545" width="160" height="192" as="geometry">
            <mxRectangle x="230" y="140" width="160" height="26" as="alternateBounds" />
          </mxGeometry>
        </mxCell>
        <mxCell id="bIeI5xdJGliXpmMRXG91-1" value="Name" style="text;align=left;verticalAlign=top;spacingLeft=4;spacingRight=4;overflow=hidden;rotatable=0;points=[[0,0.5],[1,0.5]];portConstraint=eastwest;" parent="bIeI5xdJGliXpmMRXG91-0" vertex="1">
          <mxGeometry y="26" width="160" height="26" as="geometry" />
        </mxCell>
        <mxCell id="bIeI5xdJGliXpmMRXG91-2" value="ID" style="text;align=left;verticalAlign=top;spacingLeft=4;spacingRight=4;overflow=hidden;rotatable=0;points=[[0,0.5],[1,0.5]];portConstraint=eastwest;rounded=0;shadow=0;html=0;" parent="bIeI5xdJGliXpmMRXG91-0" vertex="1">
          <mxGeometry y="52" width="160" height="28" as="geometry" />
        </mxCell>
        <mxCell id="bIeI5xdJGliXpmMRXG91-3" value="DetectorType" style="text;align=left;verticalAlign=top;spacingLeft=4;spacingRight=4;overflow=hidden;rotatable=0;points=[[0,0.5],[1,0.5]];portConstraint=eastwest;rounded=0;shadow=0;html=0;" parent="bIeI5xdJGliXpmMRXG91-0" vertex="1">
          <mxGeometry y="80" width="160" height="26" as="geometry" />
        </mxCell>
        <mxCell id="qYk1q7BttTprT0gYipQH-22" value="TrigMonologueArrary" style="text;align=left;verticalAlign=top;spacingLeft=4;spacingRight=4;overflow=hidden;rotatable=0;points=[[0,0.5],[1,0.5]];portConstraint=eastwest;rounded=0;shadow=0;html=0;" parent="bIeI5xdJGliXpmMRXG91-0" vertex="1">
          <mxGeometry y="106" width="160" height="26" as="geometry" />
        </mxCell>
        <mxCell id="qYk1q7BttTprT0gYipQH-25" value="Owner" style="text;align=left;verticalAlign=top;spacingLeft=4;spacingRight=4;overflow=hidden;rotatable=0;points=[[0,0.5],[1,0.5]];portConstraint=eastwest;rounded=0;shadow=0;html=0;" parent="bIeI5xdJGliXpmMRXG91-0" vertex="1">
          <mxGeometry y="132" width="160" height="26" as="geometry" />
        </mxCell>
        <mxCell id="bIeI5xdJGliXpmMRXG91-4" value="" style="line;html=1;strokeWidth=1;align=left;verticalAlign=middle;spacingTop=-1;spacingLeft=3;spacingRight=3;rotatable=0;labelPosition=right;points=[];portConstraint=eastwest;" parent="bIeI5xdJGliXpmMRXG91-0" vertex="1">
          <mxGeometry y="158" width="160" height="8" as="geometry" />
        </mxCell>
        <mxCell id="bIeI5xdJGliXpmMRXG91-5" value="CheckCondition()" style="text;align=left;verticalAlign=top;spacingLeft=4;spacingRight=4;overflow=hidden;rotatable=0;points=[[0,0.5],[1,0.5]];portConstraint=eastwest;" parent="bIeI5xdJGliXpmMRXG91-0" vertex="1">
          <mxGeometry y="166" width="160" height="26" as="geometry" />
        </mxCell>
        <mxCell id="bIeI5xdJGliXpmMRXG91-8" value="&lt;span style=&quot;font-style: italic ; text-align: center&quot;&gt;Monologue&lt;/span&gt;&lt;span style=&quot;text-align: center&quot;&gt;ConditionDetectMgrInterface&lt;/span&gt;&lt;span style=&quot;font-style: italic ; text-align: center&quot;&gt;&lt;br&gt;&lt;/span&gt;&lt;hr size=&quot;1&quot;&gt;&lt;p style=&quot;margin: 0px ; margin-left: 4px&quot;&gt;&lt;/p&gt;&lt;p style=&quot;margin: 0px ; margin-left: 4px&quot;&gt;GetDetectMgr&lt;/p&gt;" style="verticalAlign=top;align=left;overflow=fill;fontSize=12;fontFamily=Helvetica;html=1;" parent="WIyWlLk6GJQsqaUBKTNV-1" vertex="1">
          <mxGeometry x="560" y="388" width="231" height="60" as="geometry" />
        </mxCell>
        <mxCell id="bIeI5xdJGliXpmMRXG91-10" value="MonologueDataMgr" style="swimlane;fontStyle=2;align=center;verticalAlign=top;childLayout=stackLayout;horizontal=1;startSize=26;horizontalStack=0;resizeParent=1;resizeLast=0;collapsible=1;marginBottom=0;rounded=0;shadow=0;strokeWidth=1;" parent="WIyWlLk6GJQsqaUBKTNV-1" vertex="1">
          <mxGeometry x="850" y="990" width="310" height="170" as="geometry">
            <mxRectangle x="230" y="140" width="160" height="26" as="alternateBounds" />
          </mxGeometry>
        </mxCell>
        <mxCell id="bIeI5xdJGliXpmMRXG91-11" value="Name" style="text;align=left;verticalAlign=top;spacingLeft=4;spacingRight=4;overflow=hidden;rotatable=0;points=[[0,0.5],[1,0.5]];portConstraint=eastwest;" parent="bIeI5xdJGliXpmMRXG91-10" vertex="1">
          <mxGeometry y="26" width="310" height="26" as="geometry" />
        </mxCell>
        <mxCell id="qYk1q7BttTprT0gYipQH-39" value="MonologueDatas:TMap&lt;FString,MonologueDataStruct&gt;" style="text;align=left;verticalAlign=top;spacingLeft=4;spacingRight=4;overflow=hidden;rotatable=0;points=[[0,0.5],[1,0.5]];portConstraint=eastwest;" parent="bIeI5xdJGliXpmMRXG91-10" vertex="1">
          <mxGeometry y="52" width="310" height="26" as="geometry" />
        </mxCell>
        <mxCell id="bIeI5xdJGliXpmMRXG91-14" value="" style="line;html=1;strokeWidth=1;align=left;verticalAlign=middle;spacingTop=-1;spacingLeft=3;spacingRight=3;rotatable=0;labelPosition=right;points=[];portConstraint=eastwest;" parent="bIeI5xdJGliXpmMRXG91-10" vertex="1">
          <mxGeometry y="78" width="310" height="8" as="geometry" />
        </mxCell>
        <mxCell id="bIeI5xdJGliXpmMRXG91-15" value="GetDataStructByID" style="text;align=left;verticalAlign=top;spacingLeft=4;spacingRight=4;overflow=hidden;rotatable=0;points=[[0,0.5],[1,0.5]];portConstraint=eastwest;" parent="bIeI5xdJGliXpmMRXG91-10" vertex="1">
          <mxGeometry y="86" width="310" height="26" as="geometry" />
        </mxCell>
        <mxCell id="qYk1q7BttTprT0gYipQH-67" value="RegiesteMonologueData" style="text;align=left;verticalAlign=top;spacingLeft=4;spacingRight=4;overflow=hidden;rotatable=0;points=[[0,0.5],[1,0.5]];portConstraint=eastwest;" parent="bIeI5xdJGliXpmMRXG91-10" vertex="1">
          <mxGeometry y="112" width="310" height="26" as="geometry" />
        </mxCell>
        <mxCell id="bIeI5xdJGliXpmMRXG91-16" value="MonologueMgr" style="swimlane;fontStyle=2;align=center;verticalAlign=top;childLayout=stackLayout;horizontal=1;startSize=26;horizontalStack=0;resizeParent=1;resizeLast=0;collapsible=1;marginBottom=0;rounded=0;shadow=0;strokeWidth=1;" parent="WIyWlLk6GJQsqaUBKTNV-1" vertex="1">
          <mxGeometry x="400" y="1010" width="410" height="242" as="geometry">
            <mxRectangle x="230" y="140" width="160" height="26" as="alternateBounds" />
          </mxGeometry>
        </mxCell>
        <mxCell id="bIeI5xdJGliXpmMRXG91-17" value="Name" style="text;align=left;verticalAlign=top;spacingLeft=4;spacingRight=4;overflow=hidden;rotatable=0;points=[[0,0.5],[1,0.5]];portConstraint=eastwest;" parent="bIeI5xdJGliXpmMRXG91-16" vertex="1">
          <mxGeometry y="26" width="410" height="26" as="geometry" />
        </mxCell>
        <mxCell id="qYk1q7BttTprT0gYipQH-38" value="MonolueDataMgr" style="text;align=left;verticalAlign=top;spacingLeft=4;spacingRight=4;overflow=hidden;rotatable=0;points=[[0,0.5],[1,0.5]];portConstraint=eastwest;" parent="bIeI5xdJGliXpmMRXG91-16" vertex="1">
          <mxGeometry y="52" width="410" height="26" as="geometry" />
        </mxCell>
        <mxCell id="qYk1q7BttTprT0gYipQH-62" value="ActiveMonologues:TMultiMap&lt;Actor*,MonologueObject&gt;" style="text;align=left;verticalAlign=top;spacingLeft=4;spacingRight=4;overflow=hidden;rotatable=0;points=[[0,0.5],[1,0.5]];portConstraint=eastwest;" parent="bIeI5xdJGliXpmMRXG91-16" vertex="1">
          <mxGeometry y="78" width="410" height="26" as="geometry" />
        </mxCell>
        <mxCell id="bIeI5xdJGliXpmMRXG91-20" value="" style="line;html=1;strokeWidth=1;align=left;verticalAlign=middle;spacingTop=-1;spacingLeft=3;spacingRight=3;rotatable=0;labelPosition=right;points=[];portConstraint=eastwest;" parent="bIeI5xdJGliXpmMRXG91-16" vertex="1">
          <mxGeometry y="104" width="410" height="8" as="geometry" />
        </mxCell>
        <mxCell id="qYk1q7BttTprT0gYipQH-66" value="RegiesteMonologueData" style="text;align=left;verticalAlign=top;spacingLeft=4;spacingRight=4;overflow=hidden;rotatable=0;points=[[0,0.5],[1,0.5]];portConstraint=eastwest;" parent="bIeI5xdJGliXpmMRXG91-16" vertex="1">
          <mxGeometry y="112" width="410" height="26" as="geometry" />
        </mxCell>
        <mxCell id="bIeI5xdJGliXpmMRXG91-21" value="PostEvent(Actor* actor,FString eventName)" style="text;align=left;verticalAlign=top;spacingLeft=4;spacingRight=4;overflow=hidden;rotatable=0;points=[[0,0.5],[1,0.5]];portConstraint=eastwest;" parent="bIeI5xdJGliXpmMRXG91-16" vertex="1">
          <mxGeometry y="138" width="410" height="26" as="geometry" />
        </mxCell>
        <mxCell id="qYk1q7BttTprT0gYipQH-73" value="HasActiveMonologue(Actor* actor,FString eventName)" style="text;align=left;verticalAlign=top;spacingLeft=4;spacingRight=4;overflow=hidden;rotatable=0;points=[[0,0.5],[1,0.5]];portConstraint=eastwest;" parent="bIeI5xdJGliXpmMRXG91-16" vertex="1">
          <mxGeometry y="164" width="410" height="26" as="geometry" />
        </mxCell>
        <mxCell id="qYk1q7BttTprT0gYipQH-76" value="Internal_PostEvent(Actor* actor,FString eventName)" style="text;align=left;verticalAlign=top;spacingLeft=4;spacingRight=4;overflow=hidden;rotatable=0;points=[[0,0.5],[1,0.5]];portConstraint=eastwest;" parent="bIeI5xdJGliXpmMRXG91-16" vertex="1">
          <mxGeometry y="190" width="410" height="26" as="geometry" />
        </mxCell>
        <mxCell id="ncTQvhy3zhv_0DUiKPXW-0" value="TickMonologue" style="text;align=left;verticalAlign=top;spacingLeft=4;spacingRight=4;overflow=hidden;rotatable=0;points=[[0,0.5],[1,0.5]];portConstraint=eastwest;" vertex="1" parent="bIeI5xdJGliXpmMRXG91-16">
          <mxGeometry y="216" width="410" height="26" as="geometry" />
        </mxCell>
        <mxCell id="bIeI5xdJGliXpmMRXG91-22" value="MonologueObject" style="swimlane;fontStyle=2;align=center;verticalAlign=top;childLayout=stackLayout;horizontal=1;startSize=26;horizontalStack=0;resizeParent=1;resizeLast=0;collapsible=1;marginBottom=0;rounded=0;shadow=0;strokeWidth=1;" parent="WIyWlLk6GJQsqaUBKTNV-1" vertex="1">
          <mxGeometry x="200" y="993" width="160" height="216" as="geometry">
            <mxRectangle x="230" y="140" width="160" height="26" as="alternateBounds" />
          </mxGeometry>
        </mxCell>
        <mxCell id="qYk1q7BttTprT0gYipQH-74" value="Owner" style="text;align=left;verticalAlign=top;spacingLeft=4;spacingRight=4;overflow=hidden;rotatable=0;points=[[0,0.5],[1,0.5]];portConstraint=eastwest;" parent="bIeI5xdJGliXpmMRXG91-22" vertex="1">
          <mxGeometry y="26" width="160" height="26" as="geometry" />
        </mxCell>
        <mxCell id="qYk1q7BttTprT0gYipQH-75" value="MonoogueDataID" style="text;align=left;verticalAlign=top;spacingLeft=4;spacingRight=4;overflow=hidden;rotatable=0;points=[[0,0.5],[1,0.5]];portConstraint=eastwest;" parent="bIeI5xdJGliXpmMRXG91-22" vertex="1">
          <mxGeometry y="52" width="160" height="26" as="geometry" />
        </mxCell>
        <mxCell id="bIeI5xdJGliXpmMRXG91-23" value="ActiveMonologueStack" style="text;align=left;verticalAlign=top;spacingLeft=4;spacingRight=4;overflow=hidden;rotatable=0;points=[[0,0.5],[1,0.5]];portConstraint=eastwest;" parent="bIeI5xdJGliXpmMRXG91-22" vertex="1">
          <mxGeometry y="78" width="160" height="26" as="geometry" />
        </mxCell>
        <mxCell id="qYk1q7BttTprT0gYipQH-79" value="State" style="text;align=left;verticalAlign=top;spacingLeft=4;spacingRight=4;overflow=hidden;rotatable=0;points=[[0,0.5],[1,0.5]];portConstraint=eastwest;" parent="bIeI5xdJGliXpmMRXG91-22" vertex="1">
          <mxGeometry y="104" width="160" height="26" as="geometry" />
        </mxCell>
        <mxCell id="bIeI5xdJGliXpmMRXG91-26" value="" style="line;html=1;strokeWidth=1;align=left;verticalAlign=middle;spacingTop=-1;spacingLeft=3;spacingRight=3;rotatable=0;labelPosition=right;points=[];portConstraint=eastwest;" parent="bIeI5xdJGliXpmMRXG91-22" vertex="1">
          <mxGeometry y="130" width="160" height="8" as="geometry" />
        </mxCell>
        <mxCell id="bIeI5xdJGliXpmMRXG91-27" value="TrigMonologue" style="text;align=left;verticalAlign=top;spacingLeft=4;spacingRight=4;overflow=hidden;rotatable=0;points=[[0,0.5],[1,0.5]];portConstraint=eastwest;" parent="bIeI5xdJGliXpmMRXG91-22" vertex="1">
          <mxGeometry y="138" width="160" height="26" as="geometry" />
        </mxCell>
        <mxCell id="qYk1q7BttTprT0gYipQH-77" value="GetEndTime" style="text;align=left;verticalAlign=top;spacingLeft=4;spacingRight=4;overflow=hidden;rotatable=0;points=[[0,0.5],[1,0.5]];portConstraint=eastwest;" parent="bIeI5xdJGliXpmMRXG91-22" vertex="1">
          <mxGeometry y="164" width="160" height="26" as="geometry" />
        </mxCell>
        <mxCell id="qYk1q7BttTprT0gYipQH-78" value="GetActiveType" style="text;align=left;verticalAlign=top;spacingLeft=4;spacingRight=4;overflow=hidden;rotatable=0;points=[[0,0.5],[1,0.5]];portConstraint=eastwest;" parent="bIeI5xdJGliXpmMRXG91-22" vertex="1">
          <mxGeometry y="190" width="160" height="26" as="geometry" />
        </mxCell>
        <mxCell id="bIeI5xdJGliXpmMRXG91-28" value="SingleMonologueObject" style="swimlane;fontStyle=2;align=center;verticalAlign=top;childLayout=stackLayout;horizontal=1;startSize=26;horizontalStack=0;resizeParent=1;resizeLast=0;collapsible=1;marginBottom=0;rounded=0;shadow=0;strokeWidth=1;" parent="WIyWlLk6GJQsqaUBKTNV-1" vertex="1">
          <mxGeometry x="10" y="1015" width="160" height="138" as="geometry">
            <mxRectangle x="230" y="140" width="160" height="26" as="alternateBounds" />
          </mxGeometry>
        </mxCell>
        <mxCell id="bIeI5xdJGliXpmMRXG91-29" value="Name" style="text;align=left;verticalAlign=top;spacingLeft=4;spacingRight=4;overflow=hidden;rotatable=0;points=[[0,0.5],[1,0.5]];portConstraint=eastwest;" parent="bIeI5xdJGliXpmMRXG91-28" vertex="1">
          <mxGeometry y="26" width="160" height="26" as="geometry" />
        </mxCell>
        <mxCell id="qYk1q7BttTprT0gYipQH-45" value="Type" style="text;align=left;verticalAlign=top;spacingLeft=4;spacingRight=4;overflow=hidden;rotatable=0;points=[[0,0.5],[1,0.5]];portConstraint=eastwest;" parent="bIeI5xdJGliXpmMRXG91-28" vertex="1">
          <mxGeometry y="52" width="160" height="26" as="geometry" />
        </mxCell>
        <mxCell id="qYk1q7BttTprT0gYipQH-46" value="EndTime" style="text;align=left;verticalAlign=top;spacingLeft=4;spacingRight=4;overflow=hidden;rotatable=0;points=[[0,0.5],[1,0.5]];portConstraint=eastwest;" parent="bIeI5xdJGliXpmMRXG91-28" vertex="1">
          <mxGeometry y="78" width="160" height="26" as="geometry" />
        </mxCell>
        <mxCell id="bIeI5xdJGliXpmMRXG91-32" value="" style="line;html=1;strokeWidth=1;align=left;verticalAlign=middle;spacingTop=-1;spacingLeft=3;spacingRight=3;rotatable=0;labelPosition=right;points=[];portConstraint=eastwest;" parent="bIeI5xdJGliXpmMRXG91-28" vertex="1">
          <mxGeometry y="104" width="160" height="8" as="geometry" />
        </mxCell>
        <mxCell id="bIeI5xdJGliXpmMRXG91-34" value="MonologueDataStruct" style="swimlane;fontStyle=2;align=center;verticalAlign=top;childLayout=stackLayout;horizontal=1;startSize=26;horizontalStack=0;resizeParent=1;resizeLast=0;collapsible=1;marginBottom=0;rounded=0;shadow=0;strokeWidth=1;" parent="WIyWlLk6GJQsqaUBKTNV-1" vertex="1">
          <mxGeometry x="1210" y="921" width="160" height="268" as="geometry">
            <mxRectangle x="230" y="140" width="160" height="26" as="alternateBounds" />
          </mxGeometry>
        </mxCell>
        <mxCell id="bIeI5xdJGliXpmMRXG91-35" value="ID" style="text;align=left;verticalAlign=top;spacingLeft=4;spacingRight=4;overflow=hidden;rotatable=0;points=[[0,0.5],[1,0.5]];portConstraint=eastwest;" parent="bIeI5xdJGliXpmMRXG91-34" vertex="1">
          <mxGeometry y="26" width="160" height="26" as="geometry" />
        </mxCell>
        <mxCell id="bIeI5xdJGliXpmMRXG91-36" value="Priority" style="text;align=left;verticalAlign=top;spacingLeft=4;spacingRight=4;overflow=hidden;rotatable=0;points=[[0,0.5],[1,0.5]];portConstraint=eastwest;rounded=0;shadow=0;html=0;" parent="bIeI5xdJGliXpmMRXG91-34" vertex="1">
          <mxGeometry y="52" width="160" height="26" as="geometry" />
        </mxCell>
        <mxCell id="bIeI5xdJGliXpmMRXG91-37" value="DetectClass" style="text;align=left;verticalAlign=top;spacingLeft=4;spacingRight=4;overflow=hidden;rotatable=0;points=[[0,0.5],[1,0.5]];portConstraint=eastwest;rounded=0;shadow=0;html=0;" parent="bIeI5xdJGliXpmMRXG91-34" vertex="1">
          <mxGeometry y="78" width="160" height="26" as="geometry" />
        </mxCell>
        <mxCell id="bIeI5xdJGliXpmMRXG91-40" value="Rate" style="text;align=left;verticalAlign=top;spacingLeft=4;spacingRight=4;overflow=hidden;rotatable=0;points=[[0,0.5],[1,0.5]];portConstraint=eastwest;rounded=0;shadow=0;html=0;" parent="bIeI5xdJGliXpmMRXG91-34" vertex="1">
          <mxGeometry y="104" width="160" height="26" as="geometry" />
        </mxCell>
        <mxCell id="bIeI5xdJGliXpmMRXG91-41" value="MonologueArray" style="text;align=left;verticalAlign=top;spacingLeft=4;spacingRight=4;overflow=hidden;rotatable=0;points=[[0,0.5],[1,0.5]];portConstraint=eastwest;rounded=0;shadow=0;html=0;" parent="bIeI5xdJGliXpmMRXG91-34" vertex="1">
          <mxGeometry y="130" width="160" height="26" as="geometry" />
        </mxCell>
        <mxCell id="bIeI5xdJGliXpmMRXG91-42" value="MinDuration" style="text;align=left;verticalAlign=top;spacingLeft=4;spacingRight=4;overflow=hidden;rotatable=0;points=[[0,0.5],[1,0.5]];portConstraint=eastwest;rounded=0;shadow=0;html=0;" parent="bIeI5xdJGliXpmMRXG91-34" vertex="1">
          <mxGeometry y="156" width="160" height="26" as="geometry" />
        </mxCell>
        <mxCell id="bIeI5xdJGliXpmMRXG91-43" value="ShieldCondition" style="text;align=left;verticalAlign=top;spacingLeft=4;spacingRight=4;overflow=hidden;rotatable=0;points=[[0,0.5],[1,0.5]];portConstraint=eastwest;rounded=0;shadow=0;html=0;" parent="bIeI5xdJGliXpmMRXG91-34" vertex="1">
          <mxGeometry y="182" width="160" height="26" as="geometry" />
        </mxCell>
        <mxCell id="bIeI5xdJGliXpmMRXG91-44" value="InteruptType" style="text;align=left;verticalAlign=top;spacingLeft=4;spacingRight=4;overflow=hidden;rotatable=0;points=[[0,0.5],[1,0.5]];portConstraint=eastwest;rounded=0;shadow=0;html=0;" parent="bIeI5xdJGliXpmMRXG91-34" vertex="1">
          <mxGeometry y="208" width="160" height="26" as="geometry" />
        </mxCell>
        <mxCell id="bIeI5xdJGliXpmMRXG91-38" value="" style="line;html=1;strokeWidth=1;align=left;verticalAlign=middle;spacingTop=-1;spacingLeft=3;spacingRight=3;rotatable=0;labelPosition=right;points=[];portConstraint=eastwest;" parent="bIeI5xdJGliXpmMRXG91-34" vertex="1">
          <mxGeometry y="234" width="160" height="8" as="geometry" />
        </mxCell>
        <mxCell id="bIeI5xdJGliXpmMRXG91-45" value="MonologueConditionDetectMgr" style="swimlane;fontStyle=2;align=center;verticalAlign=top;childLayout=stackLayout;horizontal=1;startSize=26;horizontalStack=0;resizeParent=1;resizeLast=0;collapsible=1;marginBottom=0;rounded=0;shadow=0;strokeWidth=1;" parent="WIyWlLk6GJQsqaUBKTNV-1" vertex="1">
          <mxGeometry x="850" y="524" width="290" height="242" as="geometry">
            <mxRectangle x="230" y="140" width="160" height="26" as="alternateBounds" />
          </mxGeometry>
        </mxCell>
        <mxCell id="bIeI5xdJGliXpmMRXG91-46" value="Name" style="text;align=left;verticalAlign=top;spacingLeft=4;spacingRight=4;overflow=hidden;rotatable=0;points=[[0,0.5],[1,0.5]];portConstraint=eastwest;" parent="bIeI5xdJGliXpmMRXG91-45" vertex="1">
          <mxGeometry y="26" width="290" height="26" as="geometry" />
        </mxCell>
        <mxCell id="bIeI5xdJGliXpmMRXG91-47" value="Phone Number" style="text;align=left;verticalAlign=top;spacingLeft=4;spacingRight=4;overflow=hidden;rotatable=0;points=[[0,0.5],[1,0.5]];portConstraint=eastwest;rounded=0;shadow=0;html=0;" parent="bIeI5xdJGliXpmMRXG91-45" vertex="1">
          <mxGeometry y="52" width="290" height="26" as="geometry" />
        </mxCell>
        <mxCell id="bIeI5xdJGliXpmMRXG91-48" value="MonologueDataTable" style="text;align=left;verticalAlign=top;spacingLeft=4;spacingRight=4;overflow=hidden;rotatable=0;points=[[0,0.5],[1,0.5]];portConstraint=eastwest;rounded=0;shadow=0;html=0;" parent="bIeI5xdJGliXpmMRXG91-45" vertex="1">
          <mxGeometry y="78" width="290" height="26" as="geometry" />
        </mxCell>
        <mxCell id="qYk1q7BttTprT0gYipQH-23" value="DetectorArray" style="text;align=left;verticalAlign=top;spacingLeft=4;spacingRight=4;overflow=hidden;rotatable=0;points=[[0,0.5],[1,0.5]];portConstraint=eastwest;rounded=0;shadow=0;html=0;" parent="bIeI5xdJGliXpmMRXG91-45" vertex="1">
          <mxGeometry y="104" width="290" height="26" as="geometry" />
        </mxCell>
        <mxCell id="qYk1q7BttTprT0gYipQH-27" value="ConditionMetDelegate(BaseDetector*,detector)" style="text;align=left;verticalAlign=top;spacingLeft=4;spacingRight=4;overflow=hidden;rotatable=0;points=[[0,0.5],[1,0.5]];portConstraint=eastwest;rounded=0;shadow=0;html=0;" parent="bIeI5xdJGliXpmMRXG91-45" vertex="1">
          <mxGeometry y="130" width="290" height="26" as="geometry" />
        </mxCell>
        <mxCell id="bIeI5xdJGliXpmMRXG91-49" value="" style="line;html=1;strokeWidth=1;align=left;verticalAlign=middle;spacingTop=-1;spacingLeft=3;spacingRight=3;rotatable=0;labelPosition=right;points=[];portConstraint=eastwest;" parent="bIeI5xdJGliXpmMRXG91-45" vertex="1">
          <mxGeometry y="156" width="290" height="8" as="geometry" />
        </mxCell>
        <mxCell id="bIeI5xdJGliXpmMRXG91-50" value="InitializeDetectors()" style="text;align=left;verticalAlign=top;spacingLeft=4;spacingRight=4;overflow=hidden;rotatable=0;points=[[0,0.5],[1,0.5]];portConstraint=eastwest;" parent="bIeI5xdJGliXpmMRXG91-45" vertex="1">
          <mxGeometry y="164" width="290" height="26" as="geometry" />
        </mxCell>
        <mxCell id="qYk1q7BttTprT0gYipQH-26" value="EvaluateDetectors()" style="text;align=left;verticalAlign=top;spacingLeft=4;spacingRight=4;overflow=hidden;rotatable=0;points=[[0,0.5],[1,0.5]];portConstraint=eastwest;" parent="bIeI5xdJGliXpmMRXG91-45" vertex="1">
          <mxGeometry y="190" width="290" height="26" as="geometry" />
        </mxCell>
        <mxCell id="qYk1q7BttTprT0gYipQH-0" value="OnConditionMet（BaseDetector* detector)" style="text;align=left;verticalAlign=top;spacingLeft=4;spacingRight=4;overflow=hidden;rotatable=0;points=[[0,0.5],[1,0.5]];portConstraint=eastwest;" parent="bIeI5xdJGliXpmMRXG91-45" vertex="1">
          <mxGeometry y="216" width="290" height="26" as="geometry" />
        </mxCell>
        <mxCell id="qYk1q7BttTprT0gYipQH-1" value="CharacterBase" style="swimlane;fontStyle=0;align=center;verticalAlign=top;childLayout=stackLayout;horizontal=1;startSize=26;horizontalStack=0;resizeParent=1;resizeLast=0;collapsible=1;marginBottom=0;rounded=0;shadow=0;strokeWidth=1;" parent="WIyWlLk6GJQsqaUBKTNV-1" vertex="1">
          <mxGeometry x="582.75" y="554" width="185.5" height="164" as="geometry">
            <mxRectangle x="340" y="380" width="170" height="26" as="alternateBounds" />
          </mxGeometry>
        </mxCell>
        <mxCell id="qYk1q7BttTprT0gYipQH-2" value="Name" style="text;align=left;verticalAlign=top;spacingLeft=4;spacingRight=4;overflow=hidden;rotatable=0;points=[[0,0.5],[1,0.5]];portConstraint=eastwest;" parent="qYk1q7BttTprT0gYipQH-1" vertex="1">
          <mxGeometry y="26" width="185.5" height="26" as="geometry" />
        </mxCell>
        <mxCell id="qYk1q7BttTprT0gYipQH-49" value="MonologuePlayer" style="text;align=left;verticalAlign=top;spacingLeft=4;spacingRight=4;overflow=hidden;rotatable=0;points=[[0,0.5],[1,0.5]];portConstraint=eastwest;" parent="qYk1q7BttTprT0gYipQH-1" vertex="1">
          <mxGeometry y="52" width="185.5" height="26" as="geometry" />
        </mxCell>
        <mxCell id="qYk1q7BttTprT0gYipQH-32" value="DetectMgr" style="text;align=left;verticalAlign=top;spacingLeft=4;spacingRight=4;overflow=hidden;rotatable=0;points=[[0,0.5],[1,0.5]];portConstraint=eastwest;" parent="qYk1q7BttTprT0gYipQH-1" vertex="1">
          <mxGeometry y="78" width="185.5" height="26" as="geometry" />
        </mxCell>
        <mxCell id="qYk1q7BttTprT0gYipQH-55" value="MonologueDataTable" style="text;align=left;verticalAlign=top;spacingLeft=4;spacingRight=4;overflow=hidden;rotatable=0;points=[[0,0.5],[1,0.5]];portConstraint=eastwest;" parent="qYk1q7BttTprT0gYipQH-1" vertex="1">
          <mxGeometry y="104" width="185.5" height="26" as="geometry" />
        </mxCell>
        <mxCell id="qYk1q7BttTprT0gYipQH-3" value="" style="line;html=1;strokeWidth=1;align=left;verticalAlign=middle;spacingTop=-1;spacingLeft=3;spacingRight=3;rotatable=0;labelPosition=right;points=[];portConstraint=eastwest;" parent="qYk1q7BttTprT0gYipQH-1" vertex="1">
          <mxGeometry y="130" width="185.5" height="8" as="geometry" />
        </mxCell>
        <mxCell id="zkfFHV4jXpPFQw0GAbJ--14" value="GetDetectMgr_Implementation()" style="text;align=left;verticalAlign=top;spacingLeft=4;spacingRight=4;overflow=hidden;rotatable=0;points=[[0,0.5],[1,0.5]];portConstraint=eastwest;" parent="qYk1q7BttTprT0gYipQH-1" vertex="1">
          <mxGeometry y="138" width="185.5" height="26" as="geometry" />
        </mxCell>
        <mxCell id="qYk1q7BttTprT0gYipQH-4" value="AreaDetector" style="swimlane;fontStyle=2;align=center;verticalAlign=top;childLayout=stackLayout;horizontal=1;startSize=26;horizontalStack=0;resizeParent=1;resizeLast=0;collapsible=1;marginBottom=0;rounded=0;shadow=0;strokeWidth=1;" parent="WIyWlLk6GJQsqaUBKTNV-1" vertex="1">
          <mxGeometry x="1060" y="318" width="160" height="60" as="geometry">
            <mxRectangle x="230" y="140" width="160" height="26" as="alternateBounds" />
          </mxGeometry>
        </mxCell>
        <mxCell id="qYk1q7BttTprT0gYipQH-5" value="Name" style="text;align=left;verticalAlign=top;spacingLeft=4;spacingRight=4;overflow=hidden;rotatable=0;points=[[0,0.5],[1,0.5]];portConstraint=eastwest;" parent="qYk1q7BttTprT0gYipQH-4" vertex="1">
          <mxGeometry y="26" width="160" height="26" as="geometry" />
        </mxCell>
        <mxCell id="qYk1q7BttTprT0gYipQH-10" value="StateDetector" style="swimlane;fontStyle=2;align=center;verticalAlign=top;childLayout=stackLayout;horizontal=1;startSize=26;horizontalStack=0;resizeParent=1;resizeLast=0;collapsible=1;marginBottom=0;rounded=0;shadow=0;strokeWidth=1;" parent="WIyWlLk6GJQsqaUBKTNV-1" vertex="1">
          <mxGeometry x="1240" y="318" width="160" height="60" as="geometry">
            <mxRectangle x="230" y="140" width="160" height="26" as="alternateBounds" />
          </mxGeometry>
        </mxCell>
        <mxCell id="qYk1q7BttTprT0gYipQH-11" value="Name" style="text;align=left;verticalAlign=top;spacingLeft=4;spacingRight=4;overflow=hidden;rotatable=0;points=[[0,0.5],[1,0.5]];portConstraint=eastwest;" parent="qYk1q7BttTprT0gYipQH-10" vertex="1">
          <mxGeometry y="26" width="160" height="26" as="geometry" />
        </mxCell>
        <mxCell id="qYk1q7BttTprT0gYipQH-16" value="ScriptDetector" style="swimlane;fontStyle=2;align=center;verticalAlign=top;childLayout=stackLayout;horizontal=1;startSize=26;horizontalStack=0;resizeParent=1;resizeLast=0;collapsible=1;marginBottom=0;rounded=0;shadow=0;strokeWidth=1;" parent="WIyWlLk6GJQsqaUBKTNV-1" vertex="1">
          <mxGeometry x="1420" y="318" width="160" height="62" as="geometry">
            <mxRectangle x="230" y="140" width="160" height="26" as="alternateBounds" />
          </mxGeometry>
        </mxCell>
        <mxCell id="qYk1q7BttTprT0gYipQH-17" value="Name" style="text;align=left;verticalAlign=top;spacingLeft=4;spacingRight=4;overflow=hidden;rotatable=0;points=[[0,0.5],[1,0.5]];portConstraint=eastwest;" parent="qYk1q7BttTprT0gYipQH-16" vertex="1">
          <mxGeometry y="26" width="160" height="26" as="geometry" />
        </mxCell>
        <mxCell id="qYk1q7BttTprT0gYipQH-28" value="" style="endArrow=block;dashed=1;endFill=0;endSize=12;html=1;" parent="WIyWlLk6GJQsqaUBKTNV-1" source="qYk1q7BttTprT0gYipQH-1" target="bIeI5xdJGliXpmMRXG91-8" edge="1">
          <mxGeometry width="160" relative="1" as="geometry">
            <mxPoint x="590" y="570" as="sourcePoint" />
            <mxPoint x="750" y="570" as="targetPoint" />
          </mxGeometry>
        </mxCell>
        <mxCell id="qYk1q7BttTprT0gYipQH-33" value="" style="edgeStyle=orthogonalEdgeStyle;rounded=0;orthogonalLoop=1;jettySize=auto;html=1;" parent="WIyWlLk6GJQsqaUBKTNV-1" source="qYk1q7BttTprT0gYipQH-32" target="bIeI5xdJGliXpmMRXG91-45" edge="1">
          <mxGeometry relative="1" as="geometry" />
        </mxCell>
        <mxCell id="qYk1q7BttTprT0gYipQH-34" value="" style="edgeStyle=orthogonalEdgeStyle;rounded=0;orthogonalLoop=1;jettySize=auto;html=1;" parent="WIyWlLk6GJQsqaUBKTNV-1" source="qYk1q7BttTprT0gYipQH-23" target="bIeI5xdJGliXpmMRXG91-0" edge="1">
          <mxGeometry relative="1" as="geometry" />
        </mxCell>
        <mxCell id="qYk1q7BttTprT0gYipQH-35" value="Extends" style="endArrow=block;endSize=16;endFill=0;html=1;" parent="WIyWlLk6GJQsqaUBKTNV-1" source="bIeI5xdJGliXpmMRXG91-0" target="qYk1q7BttTprT0gYipQH-10" edge="1">
          <mxGeometry width="160" relative="1" as="geometry">
            <mxPoint x="1352.3023404255318" y="663" as="sourcePoint" />
            <mxPoint x="1350.001808510638" y="490" as="targetPoint" />
          </mxGeometry>
        </mxCell>
        <mxCell id="qYk1q7BttTprT0gYipQH-36" value="Extends" style="endArrow=block;endSize=16;endFill=0;html=1;" parent="WIyWlLk6GJQsqaUBKTNV-1" source="bIeI5xdJGliXpmMRXG91-0" target="qYk1q7BttTprT0gYipQH-4" edge="1">
          <mxGeometry width="160" relative="1" as="geometry">
            <mxPoint x="497.872340425532" y="909" as="sourcePoint" />
            <mxPoint x="495.5718085106382" y="736" as="targetPoint" />
          </mxGeometry>
        </mxCell>
        <mxCell id="qYk1q7BttTprT0gYipQH-37" value="Extends" style="endArrow=block;endSize=16;endFill=0;html=1;" parent="WIyWlLk6GJQsqaUBKTNV-1" source="bIeI5xdJGliXpmMRXG91-0" target="qYk1q7BttTprT0gYipQH-16" edge="1">
          <mxGeometry width="160" relative="1" as="geometry">
            <mxPoint x="507.872340425532" y="919" as="sourcePoint" />
            <mxPoint x="505.5718085106382" y="746" as="targetPoint" />
          </mxGeometry>
        </mxCell>
        <mxCell id="qYk1q7BttTprT0gYipQH-43" value="n" style="endArrow=open;html=1;endSize=12;startArrow=diamondThin;startSize=14;startFill=1;edgeStyle=orthogonalEdgeStyle;align=left;verticalAlign=bottom;" parent="WIyWlLk6GJQsqaUBKTNV-1" source="qYk1q7BttTprT0gYipQH-39" target="bIeI5xdJGliXpmMRXG91-34" edge="1">
          <mxGeometry x="-0.5" relative="1" as="geometry">
            <mxPoint x="1730" y="1395.998" as="sourcePoint" />
            <mxPoint x="1850" y="1395.998" as="targetPoint" />
            <mxPoint as="offset" />
          </mxGeometry>
        </mxCell>
        <mxCell id="qYk1q7BttTprT0gYipQH-47" value="n" style="endArrow=open;html=1;endSize=12;startArrow=diamondThin;startSize=14;startFill=1;edgeStyle=orthogonalEdgeStyle;align=left;verticalAlign=bottom;" parent="WIyWlLk6GJQsqaUBKTNV-1" source="qYk1q7BttTprT0gYipQH-62" target="bIeI5xdJGliXpmMRXG91-22" edge="1">
          <mxGeometry x="-0.5" relative="1" as="geometry">
            <mxPoint x="140" y="755" as="sourcePoint" />
            <mxPoint x="-10" y="755" as="targetPoint" />
            <mxPoint as="offset" />
          </mxGeometry>
        </mxCell>
        <mxCell id="qYk1q7BttTprT0gYipQH-50" value="MonologuePlayer" style="swimlane;fontStyle=2;align=center;verticalAlign=top;childLayout=stackLayout;horizontal=1;startSize=26;horizontalStack=0;resizeParent=1;resizeLast=0;collapsible=1;marginBottom=0;rounded=0;shadow=0;strokeWidth=1;" parent="WIyWlLk6GJQsqaUBKTNV-1" vertex="1">
          <mxGeometry x="310" y="550" width="160" height="138" as="geometry">
            <mxRectangle x="230" y="140" width="160" height="26" as="alternateBounds" />
          </mxGeometry>
        </mxCell>
        <mxCell id="qYk1q7BttTprT0gYipQH-52" value="" style="line;html=1;strokeWidth=1;align=left;verticalAlign=middle;spacingTop=-1;spacingLeft=3;spacingRight=3;rotatable=0;labelPosition=right;points=[];portConstraint=eastwest;" parent="qYk1q7BttTprT0gYipQH-50" vertex="1">
          <mxGeometry y="26" width="160" height="8" as="geometry" />
        </mxCell>
        <mxCell id="qYk1q7BttTprT0gYipQH-53" value="PostEvent(FString ID)" style="text;align=left;verticalAlign=top;spacingLeft=4;spacingRight=4;overflow=hidden;rotatable=0;points=[[0,0.5],[1,0.5]];portConstraint=eastwest;" parent="qYk1q7BttTprT0gYipQH-50" vertex="1">
          <mxGeometry y="34" width="160" height="26" as="geometry" />
        </mxCell>
        <mxCell id="qYk1q7BttTprT0gYipQH-57" value="RegiesteMonologueData" style="text;align=left;verticalAlign=top;spacingLeft=4;spacingRight=4;overflow=hidden;rotatable=0;points=[[0,0.5],[1,0.5]];portConstraint=eastwest;" parent="qYk1q7BttTprT0gYipQH-50" vertex="1">
          <mxGeometry y="60" width="160" height="26" as="geometry" />
        </mxCell>
        <mxCell id="qYk1q7BttTprT0gYipQH-54" value="" style="edgeStyle=orthogonalEdgeStyle;rounded=0;orthogonalLoop=1;jettySize=auto;html=1;" parent="WIyWlLk6GJQsqaUBKTNV-1" source="qYk1q7BttTprT0gYipQH-49" target="qYk1q7BttTprT0gYipQH-50" edge="1">
          <mxGeometry relative="1" as="geometry">
            <mxPoint x="778.25" y="681" as="sourcePoint" />
            <mxPoint x="860" y="655" as="targetPoint" />
          </mxGeometry>
        </mxCell>
        <mxCell id="qYk1q7BttTprT0gYipQH-63" value="" style="edgeStyle=orthogonalEdgeStyle;rounded=0;orthogonalLoop=1;jettySize=auto;html=1;" parent="WIyWlLk6GJQsqaUBKTNV-1" source="qYk1q7BttTprT0gYipQH-38" target="bIeI5xdJGliXpmMRXG91-10" edge="1">
          <mxGeometry relative="1" as="geometry">
            <mxPoint x="778.25" y="654.9999999999998" as="sourcePoint" />
            <mxPoint x="860" y="654.9999999999998" as="targetPoint" />
          </mxGeometry>
        </mxCell>
        <mxCell id="qYk1q7BttTprT0gYipQH-69" value="PlayMonologue_AnimNotify" style="swimlane;fontStyle=2;align=center;verticalAlign=top;childLayout=stackLayout;horizontal=1;startSize=26;horizontalStack=0;resizeParent=1;resizeLast=0;collapsible=1;marginBottom=0;rounded=0;shadow=0;strokeWidth=1;" parent="WIyWlLk6GJQsqaUBKTNV-1" vertex="1">
          <mxGeometry x="110" y="388" width="160" height="138" as="geometry">
            <mxRectangle x="230" y="140" width="160" height="26" as="alternateBounds" />
          </mxGeometry>
        </mxCell>
        <mxCell id="qYk1q7BttTprT0gYipQH-70" value="" style="line;html=1;strokeWidth=1;align=left;verticalAlign=middle;spacingTop=-1;spacingLeft=3;spacingRight=3;rotatable=0;labelPosition=right;points=[];portConstraint=eastwest;" parent="qYk1q7BttTprT0gYipQH-69" vertex="1">
          <mxGeometry y="26" width="160" height="8" as="geometry" />
        </mxCell>
        <mxCell id="qYk1q7BttTprT0gYipQH-71" value="PostEvent(FString ID)" style="text;align=left;verticalAlign=top;spacingLeft=4;spacingRight=4;overflow=hidden;rotatable=0;points=[[0,0.5],[1,0.5]];portConstraint=eastwest;" parent="qYk1q7BttTprT0gYipQH-69" vertex="1">
          <mxGeometry y="34" width="160" height="26" as="geometry" />
        </mxCell>
        <mxCell id="qYk1q7BttTprT0gYipQH-80" value="n" style="endArrow=open;html=1;endSize=12;startArrow=diamondThin;startSize=14;startFill=1;edgeStyle=orthogonalEdgeStyle;align=left;verticalAlign=bottom;" parent="WIyWlLk6GJQsqaUBKTNV-1" source="bIeI5xdJGliXpmMRXG91-23" target="bIeI5xdJGliXpmMRXG91-28" edge="1">
          <mxGeometry x="-0.5" relative="1" as="geometry">
            <mxPoint x="410" y="1111" as="sourcePoint" />
            <mxPoint x="370" y="1111" as="targetPoint" />
            <mxPoint as="offset" />
          </mxGeometry>
        </mxCell>
        <mxCell id="ncTQvhy3zhv_0DUiKPXW-1" value="&lt;span style=&quot;font-style: italic ; text-align: center&quot;&gt;VoiceTrigger&lt;br&gt;&lt;/span&gt;&lt;hr size=&quot;1&quot;&gt;&lt;p style=&quot;margin: 0px ; margin-left: 4px&quot;&gt;&lt;/p&gt;&lt;p style=&quot;margin: 0px ; margin-left: 4px&quot;&gt;VoiceStruct&lt;/p&gt;" style="verticalAlign=top;align=left;overflow=fill;fontSize=12;fontFamily=Helvetica;html=1;" vertex="1" parent="WIyWlLk6GJQsqaUBKTNV-1">
          <mxGeometry x="610" y="140" width="231" height="60" as="geometry" />
        </mxCell>
        <mxCell id="ncTQvhy3zhv_0DUiKPXW-2" value="VoiceDataStruct" style="swimlane;fontStyle=2;align=center;verticalAlign=top;childLayout=stackLayout;horizontal=1;startSize=26;horizontalStack=0;resizeParent=1;resizeLast=0;collapsible=1;marginBottom=0;rounded=0;shadow=0;strokeWidth=1;" vertex="1" parent="WIyWlLk6GJQsqaUBKTNV-1">
          <mxGeometry x="930" y="1290" width="160" height="268" as="geometry">
            <mxRectangle x="230" y="140" width="160" height="26" as="alternateBounds" />
          </mxGeometry>
        </mxCell>
        <mxCell id="ncTQvhy3zhv_0DUiKPXW-3" value="PostEventName" style="text;align=left;verticalAlign=top;spacingLeft=4;spacingRight=4;overflow=hidden;rotatable=0;points=[[0,0.5],[1,0.5]];portConstraint=eastwest;" vertex="1" parent="ncTQvhy3zhv_0DUiKPXW-2">
          <mxGeometry y="26" width="160" height="26" as="geometry" />
        </mxCell>
        <mxCell id="ncTQvhy3zhv_0DUiKPXW-4" value="Priority" style="text;align=left;verticalAlign=top;spacingLeft=4;spacingRight=4;overflow=hidden;rotatable=0;points=[[0,0.5],[1,0.5]];portConstraint=eastwest;rounded=0;shadow=0;html=0;" vertex="1" parent="ncTQvhy3zhv_0DUiKPXW-2">
          <mxGeometry y="52" width="160" height="26" as="geometry" />
        </mxCell>
        <mxCell id="ncTQvhy3zhv_0DUiKPXW-5" value="DetectClass" style="text;align=left;verticalAlign=top;spacingLeft=4;spacingRight=4;overflow=hidden;rotatable=0;points=[[0,0.5],[1,0.5]];portConstraint=eastwest;rounded=0;shadow=0;html=0;" vertex="1" parent="ncTQvhy3zhv_0DUiKPXW-2">
          <mxGeometry y="78" width="160" height="26" as="geometry" />
        </mxCell>
        <mxCell id="ncTQvhy3zhv_0DUiKPXW-10" value="InteruptType" style="text;align=left;verticalAlign=top;spacingLeft=4;spacingRight=4;overflow=hidden;rotatable=0;points=[[0,0.5],[1,0.5]];portConstraint=eastwest;rounded=0;shadow=0;html=0;" vertex="1" parent="ncTQvhy3zhv_0DUiKPXW-2">
          <mxGeometry y="104" width="160" height="26" as="geometry" />
        </mxCell>
        <mxCell id="ncTQvhy3zhv_0DUiKPXW-6" value="Rate" style="text;align=left;verticalAlign=top;spacingLeft=4;spacingRight=4;overflow=hidden;rotatable=0;points=[[0,0.5],[1,0.5]];portConstraint=eastwest;rounded=0;shadow=0;html=0;" vertex="1" parent="ncTQvhy3zhv_0DUiKPXW-2">
          <mxGeometry y="130" width="160" height="26" as="geometry" />
        </mxCell>
        <mxCell id="ncTQvhy3zhv_0DUiKPXW-7" value="MonologueArray" style="text;align=left;verticalAlign=top;spacingLeft=4;spacingRight=4;overflow=hidden;rotatable=0;points=[[0,0.5],[1,0.5]];portConstraint=eastwest;rounded=0;shadow=0;html=0;" vertex="1" parent="ncTQvhy3zhv_0DUiKPXW-2">
          <mxGeometry y="156" width="160" height="26" as="geometry" />
        </mxCell>
        <mxCell id="ncTQvhy3zhv_0DUiKPXW-8" value="MinDuration" style="text;align=left;verticalAlign=top;spacingLeft=4;spacingRight=4;overflow=hidden;rotatable=0;points=[[0,0.5],[1,0.5]];portConstraint=eastwest;rounded=0;shadow=0;html=0;" vertex="1" parent="ncTQvhy3zhv_0DUiKPXW-2">
          <mxGeometry y="182" width="160" height="26" as="geometry" />
        </mxCell>
        <mxCell id="ncTQvhy3zhv_0DUiKPXW-9" value="ShieldCondition" style="text;align=left;verticalAlign=top;spacingLeft=4;spacingRight=4;overflow=hidden;rotatable=0;points=[[0,0.5],[1,0.5]];portConstraint=eastwest;rounded=0;shadow=0;html=0;" vertex="1" parent="ncTQvhy3zhv_0DUiKPXW-2">
          <mxGeometry y="208" width="160" height="26" as="geometry" />
        </mxCell>
        <mxCell id="ncTQvhy3zhv_0DUiKPXW-11" value="" style="line;html=1;strokeWidth=1;align=left;verticalAlign=middle;spacingTop=-1;spacingLeft=3;spacingRight=3;rotatable=0;labelPosition=right;points=[];portConstraint=eastwest;" vertex="1" parent="ncTQvhy3zhv_0DUiKPXW-2">
          <mxGeometry y="234" width="160" height="8" as="geometry" />
        </mxCell>
        <mxCell id="ncTQvhy3zhv_0DUiKPXW-12" value="VoicePriorityEnum" style="swimlane;fontStyle=2;align=center;verticalAlign=top;childLayout=stackLayout;horizontal=1;startSize=26;horizontalStack=0;resizeParent=1;resizeLast=0;collapsible=1;marginBottom=0;rounded=0;shadow=0;strokeWidth=1;" vertex="1" parent="WIyWlLk6GJQsqaUBKTNV-1">
          <mxGeometry x="525" y="1330" width="160" height="268" as="geometry">
            <mxRectangle x="230" y="140" width="160" height="26" as="alternateBounds" />
          </mxGeometry>
        </mxCell>
        <mxCell id="ncTQvhy3zhv_0DUiKPXW-13" value="Hurt Breath" style="text;align=left;verticalAlign=top;spacingLeft=4;spacingRight=4;overflow=hidden;rotatable=0;points=[[0,0.5],[1,0.5]];portConstraint=eastwest;" vertex="1" parent="ncTQvhy3zhv_0DUiKPXW-12">
          <mxGeometry y="26" width="160" height="26" as="geometry" />
        </mxCell>
        <mxCell id="ncTQvhy3zhv_0DUiKPXW-14" value="Death Breath" style="text;align=left;verticalAlign=top;spacingLeft=4;spacingRight=4;overflow=hidden;rotatable=0;points=[[0,0.5],[1,0.5]];portConstraint=eastwest;rounded=0;shadow=0;html=0;" vertex="1" parent="ncTQvhy3zhv_0DUiKPXW-12">
          <mxGeometry y="52" width="160" height="26" as="geometry" />
        </mxCell>
        <mxCell id="ncTQvhy3zhv_0DUiKPXW-15" value="Action" style="text;align=left;verticalAlign=top;spacingLeft=4;spacingRight=4;overflow=hidden;rotatable=0;points=[[0,0.5],[1,0.5]];portConstraint=eastwest;rounded=0;shadow=0;html=0;" vertex="1" parent="ncTQvhy3zhv_0DUiKPXW-12">
          <mxGeometry y="78" width="160" height="26" as="geometry" />
        </mxCell>
        <mxCell id="ncTQvhy3zhv_0DUiKPXW-16" value="General Breath" style="text;align=left;verticalAlign=top;spacingLeft=4;spacingRight=4;overflow=hidden;rotatable=0;points=[[0,0.5],[1,0.5]];portConstraint=eastwest;rounded=0;shadow=0;html=0;" vertex="1" parent="ncTQvhy3zhv_0DUiKPXW-12">
          <mxGeometry y="104" width="160" height="26" as="geometry" />
        </mxCell>
        <mxCell id="ncTQvhy3zhv_0DUiKPXW-17" value="MonologueArray" style="text;align=left;verticalAlign=top;spacingLeft=4;spacingRight=4;overflow=hidden;rotatable=0;points=[[0,0.5],[1,0.5]];portConstraint=eastwest;rounded=0;shadow=0;html=0;" vertex="1" parent="ncTQvhy3zhv_0DUiKPXW-12">
          <mxGeometry y="130" width="160" height="26" as="geometry" />
        </mxCell>
        <mxCell id="ncTQvhy3zhv_0DUiKPXW-18" value="MinDuration" style="text;align=left;verticalAlign=top;spacingLeft=4;spacingRight=4;overflow=hidden;rotatable=0;points=[[0,0.5],[1,0.5]];portConstraint=eastwest;rounded=0;shadow=0;html=0;" vertex="1" parent="ncTQvhy3zhv_0DUiKPXW-12">
          <mxGeometry y="156" width="160" height="26" as="geometry" />
        </mxCell>
        <mxCell id="ncTQvhy3zhv_0DUiKPXW-19" value="ShieldCondition" style="text;align=left;verticalAlign=top;spacingLeft=4;spacingRight=4;overflow=hidden;rotatable=0;points=[[0,0.5],[1,0.5]];portConstraint=eastwest;rounded=0;shadow=0;html=0;" vertex="1" parent="ncTQvhy3zhv_0DUiKPXW-12">
          <mxGeometry y="182" width="160" height="26" as="geometry" />
        </mxCell>
        <mxCell id="ncTQvhy3zhv_0DUiKPXW-20" value="InteruptType" style="text;align=left;verticalAlign=top;spacingLeft=4;spacingRight=4;overflow=hidden;rotatable=0;points=[[0,0.5],[1,0.5]];portConstraint=eastwest;rounded=0;shadow=0;html=0;" vertex="1" parent="ncTQvhy3zhv_0DUiKPXW-12">
          <mxGeometry y="208" width="160" height="26" as="geometry" />
        </mxCell>
        <mxCell id="ncTQvhy3zhv_0DUiKPXW-21" value="" style="line;html=1;strokeWidth=1;align=left;verticalAlign=middle;spacingTop=-1;spacingLeft=3;spacingRight=3;rotatable=0;labelPosition=right;points=[];portConstraint=eastwest;" vertex="1" parent="ncTQvhy3zhv_0DUiKPXW-12">
          <mxGeometry y="234" width="160" height="8" as="geometry" />
        </mxCell>
        <mxCell id="ncTQvhy3zhv_0DUiKPXW-22" value="&lt;span style=&quot;font-style: italic ; text-align: center&quot;&gt;PostEventVoiceTrigger&lt;br&gt;&lt;/span&gt;&lt;hr size=&quot;1&quot;&gt;&lt;p style=&quot;margin: 0px ; margin-left: 4px&quot;&gt;&lt;/p&gt;&lt;p style=&quot;margin: 0px ; margin-left: 4px&quot;&gt;VoiceStruct&lt;/p&gt;" style="verticalAlign=top;align=left;overflow=fill;fontSize=12;fontFamily=Helvetica;html=1;" vertex="1" parent="WIyWlLk6GJQsqaUBKTNV-1">
          <mxGeometry x="440" y="30" width="231" height="60" as="geometry" />
        </mxCell>
        <mxCell id="ncTQvhy3zhv_0DUiKPXW-23" value="&lt;span style=&quot;font-style: italic ; text-align: center&quot;&gt;SetSwitchVoiceTrigger&lt;br&gt;&lt;/span&gt;&lt;hr size=&quot;1&quot;&gt;&lt;p style=&quot;margin: 0px ; margin-left: 4px&quot;&gt;&lt;/p&gt;&lt;p style=&quot;margin: 0px ; margin-left: 4px&quot;&gt;VoiceStruct&lt;/p&gt;" style="verticalAlign=top;align=left;overflow=fill;fontSize=12;fontFamily=Helvetica;html=1;" vertex="1" parent="WIyWlLk6GJQsqaUBKTNV-1">
          <mxGeometry x="720" y="30" width="231" height="60" as="geometry" />
        </mxCell>
        <mxCell id="ncTQvhy3zhv_0DUiKPXW-24" value="&lt;span style=&quot;font-style: italic ; text-align: center&quot;&gt;SetSwitchVoiceTrigger&lt;br&gt;&lt;/span&gt;&lt;hr size=&quot;1&quot;&gt;&lt;p style=&quot;margin: 0px ; margin-left: 4px&quot;&gt;&lt;/p&gt;&lt;p style=&quot;margin: 0px ; margin-left: 4px&quot;&gt;VoiceStruct&lt;/p&gt;" style="verticalAlign=top;align=left;overflow=fill;fontSize=12;fontFamily=Helvetica;html=1;" vertex="1" parent="WIyWlLk6GJQsqaUBKTNV-1">
          <mxGeometry x="1030" y="30" width="231" height="60" as="geometry" />
        </mxCell>
        <mxCell id="ncTQvhy3zhv_0DUiKPXW-27" value="&lt;span style=&quot;background-color: rgb(255 , 255 , 255)&quot;&gt;&lt;span style=&quot;font-family: &amp;#34;consolas&amp;#34; , monospace ; font-size: 15pt&quot;&gt;UAkAssetBase&lt;/span&gt;&lt;br&gt;&lt;/span&gt;&lt;hr size=&quot;1&quot;&gt;&lt;p style=&quot;margin: 0px ; margin-left: 4px&quot;&gt;&lt;/p&gt;&lt;p style=&quot;margin: 0px ; margin-left: 4px&quot;&gt;&lt;br&gt;&lt;/p&gt;" style="verticalAlign=top;align=left;overflow=fill;fontSize=12;fontFamily=Helvetica;html=1;" vertex="1" parent="WIyWlLk6GJQsqaUBKTNV-1">
          <mxGeometry x="1309" y="1560" width="231" height="60" as="geometry" />
        </mxCell>
        <mxCell id="ncTQvhy3zhv_0DUiKPXW-28" value="&lt;span style=&quot;background-color: rgb(255 , 255 , 255)&quot;&gt;&lt;span style=&quot;font-family: &amp;#34;consolas&amp;#34; , monospace ; font-size: 15pt&quot;&gt;UAkAudioEvent&lt;/span&gt;&lt;br&gt;&lt;/span&gt;&lt;hr size=&quot;1&quot;&gt;&lt;p style=&quot;margin: 0px ; margin-left: 4px&quot;&gt;&lt;/p&gt;&lt;p style=&quot;margin: 0px ; margin-left: 4px&quot;&gt;&lt;br&gt;&lt;/p&gt;" style="verticalAlign=top;align=left;overflow=fill;fontSize=12;fontFamily=Helvetica;html=1;" vertex="1" parent="WIyWlLk6GJQsqaUBKTNV-1">
          <mxGeometry x="1309" y="1450" width="231" height="60" as="geometry" />
        </mxCell>
        <mxCell id="ncTQvhy3zhv_0DUiKPXW-29" value="&lt;pre style=&quot;background-color: #1e1e1e ; color: #dcdcdc ; font-family: &amp;#34;consolas&amp;#34; , monospace ; font-size: 15.0pt&quot;&gt;&lt;br&gt;&lt;/pre&gt;" style="text;whiteSpace=wrap;html=1;" vertex="1" parent="WIyWlLk6GJQsqaUBKTNV-1">
          <mxGeometry x="1320" y="1910" width="140" height="70" as="geometry" />
        </mxCell>
        <mxCell id="ncTQvhy3zhv_0DUiKPXW-30" value="&lt;span style=&quot;background-color: rgb(255 , 255 , 255)&quot;&gt;&lt;font face=&quot;consolas, monospace&quot;&gt;&lt;span style=&quot;font-size: 20px&quot;&gt;UAKTrigger&lt;/span&gt;&lt;/font&gt;&lt;br&gt;&lt;/span&gt;&lt;hr size=&quot;1&quot;&gt;&lt;p style=&quot;margin: 0px ; margin-left: 4px&quot;&gt;&lt;/p&gt;&lt;p style=&quot;margin: 0px ; margin-left: 4px&quot;&gt;&lt;br&gt;&lt;/p&gt;" style="verticalAlign=top;align=left;overflow=fill;fontSize=12;fontFamily=Helvetica;html=1;" vertex="1" parent="WIyWlLk6GJQsqaUBKTNV-1">
          <mxGeometry x="1610" y="1560" width="231" height="60" as="geometry" />
        </mxCell>
        <mxCell id="ncTQvhy3zhv_0DUiKPXW-32" value="&lt;pre style=&quot;background-color: #1e1e1e ; color: #dcdcdc ; font-family: &amp;quot;consolas&amp;quot; , monospace ; font-size: 15.0pt&quot;&gt;&lt;span style=&quot;color: #ffd700&quot;&gt;UAkSwitchValue&lt;/span&gt;&lt;/pre&gt;" style="text;whiteSpace=wrap;html=1;" vertex="1" parent="WIyWlLk6GJQsqaUBKTNV-1">
          <mxGeometry x="1430" y="2100" width="180" height="70" as="geometry" />
        </mxCell>
        <mxCell id="ncTQvhy3zhv_0DUiKPXW-33" value="&lt;pre style=&quot;background-color: #1e1e1e ; color: #dcdcdc ; font-family: &amp;quot;consolas&amp;quot; , monospace ; font-size: 15.0pt&quot;&gt;&lt;span style=&quot;background-color: #3c4248&quot;&gt;UAkAudioType&lt;/span&gt;&lt;/pre&gt;" style="text;whiteSpace=wrap;html=1;" vertex="1" parent="WIyWlLk6GJQsqaUBKTNV-1">
          <mxGeometry x="1540" y="2020" width="160" height="70" as="geometry" />
        </mxCell>
        <mxCell id="ncTQvhy3zhv_0DUiKPXW-34" value="&lt;span style=&quot;background-color: rgb(255 , 255 , 255)&quot;&gt;&lt;span style=&quot;font-family: &amp;#34;consolas&amp;#34; , monospace ; font-size: 15pt&quot;&gt;UAkAudioType&lt;/span&gt;&lt;br&gt;&lt;/span&gt;&lt;hr size=&quot;1&quot;&gt;&lt;p style=&quot;margin: 0px ; margin-left: 4px&quot;&gt;&lt;/p&gt;&lt;p style=&quot;margin: 0px ; margin-left: 4px&quot;&gt;&lt;span style=&quot;background-color: rgb(255 , 255 , 255)&quot;&gt;ID&lt;/span&gt;&lt;/p&gt;" style="verticalAlign=top;align=left;overflow=fill;fontSize=12;fontFamily=Helvetica;html=1;" vertex="1" parent="WIyWlLk6GJQsqaUBKTNV-1">
          <mxGeometry x="1600" y="1690" width="231" height="60" as="geometry" />
        </mxCell>
        <mxCell id="ncTQvhy3zhv_0DUiKPXW-35" value="&lt;pre style=&quot;background-color: #1e1e1e ; color: #dcdcdc ; font-family: &amp;quot;consolas&amp;quot; , monospace ; font-size: 15.0pt&quot;&gt;&lt;span style=&quot;background-color: #3c4248&quot;&gt;UAkGroupValue&lt;/span&gt;&lt;/pre&gt;" style="text;whiteSpace=wrap;html=1;" vertex="1" parent="WIyWlLk6GJQsqaUBKTNV-1">
          <mxGeometry x="1435" y="2180" width="170" height="70" as="geometry" />
        </mxCell>
        <mxCell id="ncTQvhy3zhv_0DUiKPXW-36" value="&lt;span style=&quot;font-family: &amp;#34;consolas&amp;#34; , monospace ; font-size: 15pt ; background-color: rgb(255 , 255 , 255)&quot;&gt;UAkSwitchValue&lt;/span&gt;&lt;br&gt;&lt;hr size=&quot;1&quot;&gt;&lt;p style=&quot;margin: 0px ; margin-left: 4px&quot;&gt;&lt;/p&gt;&lt;p style=&quot;margin: 0px ; margin-left: 4px&quot;&gt;&lt;br&gt;&lt;/p&gt;" style="verticalAlign=top;align=left;overflow=fill;fontSize=12;fontFamily=Helvetica;html=1;" vertex="1" parent="WIyWlLk6GJQsqaUBKTNV-1">
          <mxGeometry x="1890" y="1560" width="231" height="60" as="geometry" />
        </mxCell>
        <mxCell id="ncTQvhy3zhv_0DUiKPXW-37" value="&lt;span style=&quot;background-color: rgb(255 , 255 , 255)&quot;&gt;&lt;span style=&quot;font-family: &amp;#34;consolas&amp;#34; , monospace ; font-size: 15pt&quot;&gt;UAkGroupValue&lt;/span&gt;&lt;/span&gt;&lt;br&gt;&lt;hr size=&quot;1&quot;&gt;&lt;p style=&quot;margin: 0px ; margin-left: 4px&quot;&gt;&lt;/p&gt;&lt;p style=&quot;margin: 0px ; margin-left: 4px&quot;&gt;&lt;br&gt;&lt;/p&gt;" style="verticalAlign=top;align=left;overflow=fill;fontSize=12;fontFamily=Helvetica;html=1;" vertex="1" parent="WIyWlLk6GJQsqaUBKTNV-1">
          <mxGeometry x="1890" y="1460" width="231" height="60" as="geometry" />
        </mxCell>
        <mxCell id="ncTQvhy3zhv_0DUiKPXW-38" value="Extends" style="endArrow=block;endSize=16;endFill=0;html=1;" edge="1" parent="WIyWlLk6GJQsqaUBKTNV-1" source="ncTQvhy3zhv_0DUiKPXW-34" target="ncTQvhy3zhv_0DUiKPXW-30">
          <mxGeometry width="160" relative="1" as="geometry">
            <mxPoint x="1793.940410958904" y="1546.5" as="sourcePoint" />
            <mxPoint x="1890.002054794521" y="1381.5" as="targetPoint" />
          </mxGeometry>
        </mxCell>
        <mxCell id="ncTQvhy3zhv_0DUiKPXW-40" value="Extends" style="endArrow=block;endSize=16;endFill=0;html=1;" edge="1" parent="WIyWlLk6GJQsqaUBKTNV-1" source="ncTQvhy3zhv_0DUiKPXW-34" target="ncTQvhy3zhv_0DUiKPXW-36">
          <mxGeometry width="160" relative="1" as="geometry">
            <mxPoint x="1830.0004109589045" y="1295" as="sourcePoint" />
            <mxPoint x="1926.0620547945214" y="1130" as="targetPoint" />
          </mxGeometry>
        </mxCell>
        <mxCell id="ncTQvhy3zhv_0DUiKPXW-41" value="Extends" style="endArrow=block;endSize=16;endFill=0;html=1;" edge="1" parent="WIyWlLk6GJQsqaUBKTNV-1" source="ncTQvhy3zhv_0DUiKPXW-36" target="ncTQvhy3zhv_0DUiKPXW-37">
          <mxGeometry width="160" relative="1" as="geometry">
            <mxPoint x="1830.0004109589045" y="1295" as="sourcePoint" />
            <mxPoint x="1926.0620547945214" y="1130" as="targetPoint" />
          </mxGeometry>
        </mxCell>
        <mxCell id="ncTQvhy3zhv_0DUiKPXW-42" value="Extends" style="endArrow=block;endSize=16;endFill=0;html=1;" edge="1" parent="WIyWlLk6GJQsqaUBKTNV-1" source="ncTQvhy3zhv_0DUiKPXW-27" target="ncTQvhy3zhv_0DUiKPXW-28">
          <mxGeometry width="160" relative="1" as="geometry">
            <mxPoint x="1830.0004109589045" y="1295" as="sourcePoint" />
            <mxPoint x="1926.0620547945214" y="1130" as="targetPoint" />
          </mxGeometry>
        </mxCell>
        <mxCell id="ncTQvhy3zhv_0DUiKPXW-43" value="Extends" style="endArrow=block;endSize=16;endFill=0;html=1;" edge="1" parent="WIyWlLk6GJQsqaUBKTNV-1" source="ncTQvhy3zhv_0DUiKPXW-34" target="ncTQvhy3zhv_0DUiKPXW-27">
          <mxGeometry width="160" relative="1" as="geometry">
            <mxPoint x="1727.807692307692" y="1700" as="sourcePoint" />
            <mxPoint x="1733.192307692308" y="1630" as="targetPoint" />
          </mxGeometry>
        </mxCell>
      </root>
    </mxGraphModel>
  </diagram>
</mxfile>
